<svg width="11" height="11" viewBox="0 0 11 11" fill="none" xmlns="http://www.w3.org/2000/svg">
<path d="M9.59598 3.13616C10.0558 3.92187 10.2857 4.78125 10.2857 5.71429C10.2857 6.64732 10.0558 7.50893 9.59598 8.29911C9.13616 9.08482 8.51116 9.70759 7.72098 10.1674C6.93527 10.6272 6.07589 10.8571 5.14286 10.8571C4.20982 10.8571 3.34821 10.6272 2.55804 10.1674C1.77232 9.70759 1.14955 9.08482 0.689732 8.29911C0.229911 7.50893 0 6.64732 0 5.71429C0 4.78125 0.229911 3.92187 0.689732 3.13616C1.14955 2.34598 1.77232 1.72098 2.55804 1.26116C3.34821 0.801339 4.20982 0.571428 5.14286 0.571428C6.07589 0.571428 6.93527 0.801339 7.72098 1.26116C8.51116 1.72098 9.13616 2.34598 9.59598 3.13616Z" fill="white"/>
</svg>
